<svg xmlns="http://www.w3.org/2000/svg" width="425.67" height="44" viewBox="0 0 425.67 44">
  <g id="Logo" transform="translate(-963.702 -241.072)">
    <g id="Grupo_6" data-name="Grupo 6" transform="translate(963.702 242.09)">
      <g id="Grupo_5" data-name="Grupo 5">
        <path id="Trazado_15" data-name="Trazado 15" d="M1001.6,244.613l-6.039,37.933a2.445,2.445,0,0,1-2.677,2.263H990.7a2.5,2.5,0,0,1-2.74-2.2L982.8,255.444l-5.168,27.165a2.5,2.5,0,0,1-2.738,2.2h-2.427a2.445,2.445,0,0,1-2.678-2.263l-6.038-37.933c-.25-1.713.559-2.629,2.24-2.629h2.055a2.41,2.41,0,0,1,2.615,2.325l3.361,28.265,5.168-28.39a2.5,2.5,0,0,1,2.739-2.2h1.868a2.5,2.5,0,0,1,2.739,2.2l5.168,28.39,3.361-28.265a2.41,2.41,0,0,1,2.615-2.325h1.681C1001.037,241.984,1001.846,242.9,1001.6,244.613Z" transform="translate(-963.702 -241.984)"/>
        <path id="Trazado_16" data-name="Trazado 16" d="M1009.455,241.984h2.241a2.216,2.216,0,0,1,2.49,2.447v15.415h8.28V244.431a2.216,2.216,0,0,1,2.49-2.447h2.242a2.215,2.215,0,0,1,2.489,2.447v37.933a2.215,2.215,0,0,1-2.489,2.445h-2.242a2.215,2.215,0,0,1-2.49-2.445V266.211h-8.28v16.152a2.215,2.215,0,0,1-2.49,2.445h-2.241a2.215,2.215,0,0,1-2.49-2.445V244.431A2.216,2.216,0,0,1,1009.455,241.984Z" transform="translate(-958.678 -241.984)"/>
        <path id="Trazado_17" data-name="Trazado 17" d="M1043.43,284.809h-2.241a2.215,2.215,0,0,1-2.49-2.445V244.431a2.216,2.216,0,0,1,2.49-2.447h2.241a2.216,2.216,0,0,1,2.49,2.447v37.933A2.215,2.215,0,0,1,1043.43,284.809Z" transform="translate(-954.992 -241.984)"/>
        <path id="Trazado_18" data-name="Trazado 18" d="M1074.912,280.9v1.469a2.215,2.215,0,0,1-2.49,2.445h-13.385a2.215,2.215,0,0,1-2.489-2.445V244.431a2.215,2.215,0,0,1,2.489-2.447h2.242a2.216,2.216,0,0,1,2.49,2.447v34.015h8.652A2.217,2.217,0,0,1,1074.912,280.9Z" transform="translate(-952.919 -241.984)"/>
        <path id="Trazado_19" data-name="Trazado 19" d="M1098.844,284.809h-14.319a2.215,2.215,0,0,1-2.49-2.445V244.431a2.216,2.216,0,0,1,2.49-2.447h14.131a2.216,2.216,0,0,1,2.49,2.447v1.347a2.217,2.217,0,0,1-2.49,2.447h-9.4v11.746h7.47a2.216,2.216,0,0,1,2.49,2.447v1.346a2.217,2.217,0,0,1-2.49,2.447h-7.47v12.359h9.588a2.215,2.215,0,0,1,2.49,2.444v1.349A2.215,2.215,0,0,1,1098.844,284.809Z" transform="translate(-949.96 -241.984)"/>
      </g>
    </g>
    <g id="Grupo_7" data-name="Grupo 7" transform="translate(1178.778 241.072)">
      <path id="Trazado_20" data-name="Trazado 20" d="M1167.655,284.346h-2.24a2.217,2.217,0,0,1-2.491-2.447V243.966a2.216,2.216,0,0,1,2.491-2.445h2.24a2.216,2.216,0,0,1,2.491,2.445V281.9A2.217,2.217,0,0,1,1167.655,284.346Z" transform="translate(-1162.924 -241.02)"/>
      <path id="Trazado_21" data-name="Trazado 21" d="M1184.88,284.346h-1.62a2.215,2.215,0,0,1-2.489-2.447V243.966a2.215,2.215,0,0,1,2.489-2.445h2.616a2.689,2.689,0,0,1,2.8,2.016l8.466,24.474V243.966a2.215,2.215,0,0,1,2.49-2.445h1.618a2.216,2.216,0,0,1,2.49,2.445V281.9a2.216,2.216,0,0,1-2.49,2.447h-2.24a2.686,2.686,0,0,1-2.8-2.019l-8.842-25.818V281.9A2.215,2.215,0,0,1,1184.88,284.346Z" transform="translate(-1160.851 -241.02)"/>
      <path id="Trazado_22" data-name="Trazado 22" d="M1212.5,281.9V243.966a2.216,2.216,0,0,1,2.492-2.445h13.88a2.216,2.216,0,0,1,2.492,2.445v1.347a2.216,2.216,0,0,1-2.492,2.446h-9.149v12.053h7.219a2.217,2.217,0,0,1,2.492,2.449v1.344a2.217,2.217,0,0,1-2.492,2.447h-7.219V281.9a2.217,2.217,0,0,1-2.492,2.447H1215A2.217,2.217,0,0,1,1212.5,281.9Z" transform="translate(-1157.166 -241.02)"/>
      <path id="Trazado_23" data-name="Trazado 23" d="M1243.282,284.346h-2.242a2.215,2.215,0,0,1-2.489-2.447V243.966a2.215,2.215,0,0,1,2.489-2.445h2.242a2.216,2.216,0,0,1,2.49,2.445V281.9A2.216,2.216,0,0,1,1243.282,284.346Z" transform="translate(-1154.141 -241.02)"/>
      <path id="Trazado_24" data-name="Trazado 24" d="M1260.507,284.346h-1.618a2.216,2.216,0,0,1-2.49-2.447V243.966a2.216,2.216,0,0,1,2.49-2.445h2.614a2.686,2.686,0,0,1,2.8,2.016l8.468,24.474V243.966a2.215,2.215,0,0,1,2.49-2.445h1.618a2.215,2.215,0,0,1,2.49,2.445V281.9a2.216,2.216,0,0,1-2.49,2.447h-2.242a2.689,2.689,0,0,1-2.8-2.019L1263,256.508V281.9A2.216,2.216,0,0,1,1260.507,284.346Z" transform="translate(-1152.068 -241.02)"/>
      <path id="Trazado_25" data-name="Trazado 25" d="M1293.086,284.346h-2.241a2.216,2.216,0,0,1-2.49-2.447V243.966a2.215,2.215,0,0,1,2.49-2.445h2.241a2.215,2.215,0,0,1,2.49,2.445V281.9A2.216,2.216,0,0,1,1293.086,284.346Z" transform="translate(-1148.357 -241.02)"/>
      <path id="Trazado_26" data-name="Trazado 26" d="M1325.539,243.966v1.347a2.215,2.215,0,0,1-2.49,2.446h-4.795V281.9a2.216,2.216,0,0,1-2.49,2.447h-2.241a2.216,2.216,0,0,1-2.49-2.447v-34.14h-4.793a2.217,2.217,0,0,1-2.492-2.446v-1.347a2.217,2.217,0,0,1,2.492-2.445h16.809A2.215,2.215,0,0,1,1325.539,243.966Z" transform="translate(-1146.569 -241.02)"/>
      <path id="Trazado_27" data-name="Trazado 27" d="M1342.481,241.072h.5c6.6,0,10.957,2.572,10.957,9.059v25.706c0,6.487-4.36,9.057-10.957,9.057h-.5c-6.6,0-10.956-2.57-10.956-9.057V250.131C1331.525,243.581,1335.882,241.072,1342.481,241.072Zm.25,37.582c2.366,0,3.985-.857,3.985-3.919v-23.5c0-3.058-1.618-3.914-3.985-3.914s-3.983.856-3.983,3.914v23.5C1338.748,277.8,1340.366,278.654,1342.731,278.654Z" transform="translate(-1143.344 -241.072)"/>
    </g>
    <path id="Trazado_28" data-name="Trazado 28" d="M1138.672,241.662a17.831,17.831,0,0,0-17.962,17.657,17.292,17.292,0,0,0,.824,5.284,10.461,10.461,0,0,0-1.1-.059,10.232,10.232,0,1,0,10.388,10.629,18.076,18.076,0,0,0,7.853,1.8,17.658,17.658,0,1,0,0-35.311Zm-18.241,37.731a4.62,4.62,0,1,1,4.7-4.62A4.667,4.667,0,0,1,1120.431,279.393Zm18.241-8.03a12.047,12.047,0,1,1,12.255-12.045A12.165,12.165,0,0,1,1138.672,271.363Z" transform="translate(13.915 0.069)" fill="#75bfa6"/>
  </g>
</svg>
